{
  "asset": {
    "version": "2.0",
    "generator": "AzureRender original material fixture"
  },
  "scene": 0,
  "scenes": [
    {
      "nodes": [
        0,
        3
      ]
    }
  ],
  "nodes": [
    {
      "name": "FixtureRoot",
      "children": [
        1
      ]
    },
    {
      "name": "FixtureHead",
      "children": [
        2
      ]
    },
    {
      "name": "FixtureBrow"
    },
    {
      "name": "FixtureMesh",
      "mesh": 0,
      "skin": 0
    }
  ],
  "skins": [
    {
      "joints": [
        0,
        1,
        2
      ],
      "skeleton": 0
    }
  ],
  "materials": [
    {
      "name": "Fixture_generic",
      "pbrMetallicRoughness": {
        "baseColorFactor": [
          0.12,
          0.25,
          0.3,
          1
        ]
      },
      "extras": {
        "azureRenderMaterial": {
          "schemaVersion": 1,
          "class": "generic",
          "features": [
            "neutral-fallback"
          ],
          "styleParameters": [
            0.9,
            0.8,
            0.4,
            0.4
          ],
          "featureParameters": [
            0.8,
            1,
            1,
            1
          ]
        }
      }
    },
    {
      "name": "Fixture_face",
      "pbrMetallicRoughness": {
        "baseColorFactor": [
          1,
          0.76,
          0.65,
          1
        ]
      },
      "extras": {
        "azureRenderMaterial": {
          "schemaVersion": 1,
          "class": "face",
          "features": [
            "stylized-shadow",
            "face-sdf-eligible"
          ],
          "styleParameters": [
            0.9,
            0.8,
            0.4,
            0.4
          ],
          "featureParameters": [
            0.8,
            1,
            1,
            1
          ],
          "faceSdf": {
            "schemaVersion": 1,
            "texture": 0,
            "texCoord": 0,
            "channel": "r",
            "maskChannel": "a",
            "shadowOnLowValues": true,
            "horizontalAxis": "left-to-right",
            "headNode": "FixtureHead"
          }
        }
      }
    },
    {
      "name": "Fixture_hair",
      "pbrMetallicRoughness": {
        "baseColorFactor": [
          0.45,
          0.06,
          0.12,
          1
        ]
      },
      "extras": {
        "azureRenderMaterial": {
          "schemaVersion": 1,
          "class": "hair",
          "features": [
            "stylized-shadow",
            "hair-anisotropy"
          ],
          "styleParameters": [
            0.9,
            0.8,
            0.4,
            0.4
          ],
          "featureParameters": [
            0.8,
            1,
            1,
            1
          ]
        },
        "afterglowHairDataTexture": 1,
        "afterglowHairParameters": [
          128,
          0.4,
          4,
          1
        ]
      }
    },
    {
      "name": "Fixture_overlay",
      "pbrMetallicRoughness": {
        "baseColorFactor": [
          0.14,
          0.015,
          0.025,
          1
        ]
      },
      "extras": {
        "azureRenderMaterial": {
          "schemaVersion": 1,
          "class": "overlay",
          "features": [
            "overlay",
            "brow-overlay"
          ],
          "styleParameters": [
            0.0012,
            0,
            0,
            0
          ],
          "featureParameters": [
            0.001,
            1,
            0.02,
            1
          ]
        }
      },
      "alphaMode": "BLEND",
      "doubleSided": true
    }
  ],
  "meshes": [
    {
      "primitives": [
        {
          "attributes": {
            "POSITION": 0,
            "NORMAL": 1,
            "TEXCOORD_0": 2,
            "JOINTS_0": 3,
            "WEIGHTS_0": 4
          },
          "indices": 5,
          "material": 0
        },
        {
          "attributes": {
            "POSITION": 6,
            "NORMAL": 7,
            "TEXCOORD_0": 8,
            "JOINTS_0": 9,
            "WEIGHTS_0": 10
          },
          "indices": 11,
          "material": 1
        },
        {
          "attributes": {
            "POSITION": 12,
            "NORMAL": 13,
            "TEXCOORD_0": 14,
            "JOINTS_0": 15,
            "WEIGHTS_0": 16
          },
          "indices": 17,
          "material": 2
        },
        {
          "attributes": {
            "POSITION": 18,
            "NORMAL": 19,
            "TEXCOORD_0": 20,
            "JOINTS_0": 21,
            "WEIGHTS_0": 22
          },
          "indices": 23,
          "material": 3
        },
        {
          "attributes": {
            "POSITION": 24,
            "NORMAL": 25,
            "TEXCOORD_0": 26,
            "JOINTS_0": 27,
            "WEIGHTS_0": 28
          },
          "indices": 29,
          "material": 3
        }
      ]
    }
  ],
  "buffers": [
    {
      "byteLength": 25368,
      "uri": "data:application/octet-stream;base64,"
    }
  ],
  "bufferViews": [
    {
      "buffer": 0,
      "byteOffset": 0,
      "byteLength": 288
    },
    {
      "buffer": 0,
      "byteOffset": 288,
      "byteLength": 288
    },
    {
      "buffer": 0,
      "byteOffset": 576,
      "byteLength": 192
    },
    {
      "buffer": 0,
      "byteOffset": 768,
      "byteLength": 192
    },
    {
      "buffer": 0,
      "byteOffset": 960,
      "byteLength": 384
    },
    {
      "buffer": 0,
      "byteOffset": 1344,
      "byteLength": 72
    },
    {
      "buffer": 0,
      "byteOffset": 1416,
      "byteLength": 288
    },
    {
      "buffer": 0,
      "byteOffset": 1704,
      "byteLength": 288
    },
    {
      "buffer": 0,
      "byteOffset": 1992,
      "byteLength": 192
    },
    {
      "buffer": 0,
      "byteOffset": 2184,
      "byteLength": 192
    },
    {
      "buffer": 0,
      "byteOffset": 2376,
      "byteLength": 384
    },
    {
      "buffer": 0,
      "byteOffset": 2760,
      "byteLength": 72
    },
    {
      "buffer": 0,
      "byteOffset": 2832,
      "byteLength": 3564
    },
    {
      "buffer": 0,
      "byteOffset": 6396,
      "byteLength": 3564
    },
    {
      "buffer": 0,
      "byteOffset": 9960,
      "byteLength": 2376
    },
    {
      "buffer": 0,
      "byteOffset": 12336,
      "byteLength": 2376
    },
    {
      "buffer": 0,
      "byteOffset": 14712,
      "byteLength": 4752
    },
    {
      "buffer": 0,
      "byteOffset": 19464,
      "byteLength": 3072
    },
    {
      "buffer": 0,
      "byteOffset": 22536,
      "byteLength": 288
    },
    {
      "buffer": 0,
      "byteOffset": 22824,
      "byteLength": 288
    },
    {
      "buffer": 0,
      "byteOffset": 23112,
      "byteLength": 192
    },
    {
      "buffer": 0,
      "byteOffset": 23304,
      "byteLength": 192
    },
    {
      "buffer": 0,
      "byteOffset": 23496,
      "byteLength": 384
    },
    {
      "buffer": 0,
      "byteOffset": 23880,
      "byteLength": 72
    },
    {
      "buffer": 0,
      "byteOffset": 23952,
      "byteLength": 288
    },
    {
      "buffer": 0,
      "byteOffset": 24240,
      "byteLength": 288
    },
    {
      "buffer": 0,
      "byteOffset": 24528,
      "byteLength": 192
    },
    {
      "buffer": 0,
      "byteOffset": 24720,
      "byteLength": 192
    },
    {
      "buffer": 0,
      "byteOffset": 24912,
      "byteLength": 384
    },
    {
      "buffer": 0,
      "byteOffset": 25296,
      "byteLength": 72
    }
  ],
  "accessors": [
    {
      "bufferView": 0,
      "componentType": 5126,
      "count": 24,
      "type": "VEC3",
      "min": [
        -0.24,
        0.0,
        -0.15
      ],
      "max": [
        0.24,
        1.0,
        0.15
      ]
    },
    {
      "bufferView": 1,
      "componentType": 5126,
      "count": 24,
      "type": "VEC3"
    },
    {
      "bufferView": 2,
      "componentType": 5126,
      "count": 24,
      "type": "VEC2"
    },
    {
      "bufferView": 3,
      "componentType": 5123,
      "count": 24,
      "type": "VEC4"
    },
    {
      "bufferView": 4,
      "componentType": 5126,
      "count": 24,
      "type": "VEC4"
    },
    {
      "bufferView": 5,
      "componentType": 5123,
      "count": 36,
      "type": "SCALAR"
    },
    {
      "bufferView": 6,
      "componentType": 5126,
      "count": 24,
      "type": "VEC3",
      "min": [
        -0.22,
        1.05,
        -0.19
      ],
      "max": [
        0.22,
        1.55,
        0.19
      ]
    },
    {
      "bufferView": 7,
      "componentType": 5126,
      "count": 24,
      "type": "VEC3"
    },
    {
      "bufferView": 8,
      "componentType": 5126,
      "count": 24,
      "type": "VEC2"
    },
    {
      "bufferView": 9,
      "componentType": 5123,
      "count": 24,
      "type": "VEC4"
    },
    {
      "bufferView": 10,
      "componentType": 5126,
      "count": 24,
      "type": "VEC4"
    },
    {
      "bufferView": 11,
      "componentType": 5123,
      "count": 36,
      "type": "SCALAR"
    },
    {
      "bufferView": 12,
      "componentType": 5126,
      "count": 297,
      "type": "VEC3",
      "min": [
        -0.265,
        1.51,
        -0.235
      ],
      "max": [
        0.265,
        1.7198963776768037,
        0.235
      ]
    },
    {
      "bufferView": 13,
      "componentType": 5126,
      "count": 297,
      "type": "VEC3"
    },
    {
      "bufferView": 14,
      "componentType": 5126,
      "count": 297,
      "type": "VEC2"
    },
    {
      "bufferView": 15,
      "componentType": 5123,
      "count": 297,
      "type": "VEC4"
    },
    {
      "bufferView": 16,
      "componentType": 5126,
      "count": 297,
      "type": "VEC4"
    },
    {
      "bufferView": 17,
      "componentType": 5123,
      "count": 1536,
      "type": "SCALAR"
    },
    {
      "bufferView": 18,
      "componentType": 5126,
      "count": 24,
      "type": "VEC3",
      "min": [
        -0.182,
        1.391,
        0.196
      ],
      "max": [
        -0.048,
        1.4089999999999998,
        0.2
      ]
    },
    {
      "bufferView": 19,
      "componentType": 5126,
      "count": 24,
      "type": "VEC3"
    },
    {
      "bufferView": 20,
      "componentType": 5126,
      "count": 24,
      "type": "VEC2"
    },
    {
      "bufferView": 21,
      "componentType": 5123,
      "count": 24,
      "type": "VEC4"
    },
    {
      "bufferView": 22,
      "componentType": 5126,
      "count": 24,
      "type": "VEC4"
    },
    {
      "bufferView": 23,
      "componentType": 5123,
      "count": 36,
      "type": "SCALAR"
    },
    {
      "bufferView": 24,
      "componentType": 5126,
      "count": 24,
      "type": "VEC3",
      "min": [
        0.048,
        1.391,
        0.196
      ],
      "max": [
        0.182,
        1.4089999999999998,
        0.2
      ]
    },
    {
      "bufferView": 25,
      "componentType": 5126,
      "count": 24,
      "type": "VEC3"
    },
    {
      "bufferView": 26,
      "componentType": 5126,
      "count": 24,
      "type": "VEC2"
    },
    {
      "bufferView": 27,
      "componentType": 5123,
      "count": 24,
      "type": "VEC4"
    },
    {
      "bufferView": 28,
      "componentType": 5126,
      "count": 24,
      "type": "VEC4"
    },
    {
      "bufferView": 29,
      "componentType": 5123,
      "count": 36,
      "type": "SCALAR"
    }
  ],
  "images": [
    {
      "uri": "../face_sdf_v1.png"
    },
    {
      "uri": "fixture_hair_data.png"
    }
  ],
  "textures": [
    {
      "source": 0
    },
    {
      "source": 1
    }
  ]
}