{
  "asset": {
    "version": "2.0",
    "generator": "AzureRender original CC0 character generator",
    "extras": {
      "license": "CC0-1.0",
      "motionReferenceMetersPerSecond": 2
    }
  },
  "scene": 0,
  "scenes": [
    {
      "nodes": [
        0,
        1
      ]
    }
  ],
  "nodes": [
    {
      "name": "explorer",
      "mesh": 0,
      "skin": 0
    },
    {
      "name": "hips",
      "translation": [
        0,
        0.9,
        0
      ],
      "children": [
        2,
        10,
        13
      ]
    },
    {
      "name": "spine",
      "translation": [
        0,
        0.3,
        0
      ],
      "children": [
        3,
        4,
        7
      ]
    },
    {
      "name": "head",
      "translation": [
        0,
        0.43,
        0
      ]
    },
    {
      "name": "left-arm",
      "translation": [
        0.27,
        0.21,
        0
      ],
      "children": [
        5
      ]
    },
    {
      "name": "left-forearm",
      "translation": [
        0,
        -0.27,
        0
      ],
      "children": [
        6
      ]
    },
    {
      "name": "left-hand",
      "translation": [
        0,
        -0.25,
        0
      ]
    },
    {
      "name": "right-arm",
      "translation": [
        -0.27,
        0.21,
        0
      ],
      "children": [
        8
      ]
    },
    {
      "name": "right-forearm",
      "translation": [
        0,
        -0.27,
        0
      ],
      "children": [
        9
      ]
    },
    {
      "name": "right-hand",
      "translation": [
        0,
        -0.25,
        0
      ]
    },
    {
      "name": "left-thigh",
      "translation": [
        0.13,
        -0.02,
        0
      ],
      "children": [
        11
      ]
    },
    {
      "name": "left-calf",
      "translation": [
        0,
        -0.4,
        0
      ],
      "children": [
        12
      ]
    },
    {
      "name": "left-foot",
      "translation": [
        0,
        -0.4,
        0
      ]
    },
    {
      "name": "right-thigh",
      "translation": [
        -0.13,
        -0.02,
        0
      ],
      "children": [
        14
      ]
    },
    {
      "name": "right-calf",
      "translation": [
        0,
        -0.4,
        0
      ],
      "children": [
        15
      ]
    },
    {
      "name": "right-foot",
      "translation": [
        0,
        -0.4,
        0
      ]
    }
  ],
  "skins": [
    {
      "joints": [
        1,
        2,
        3,
        4,
        5,
        6,
        7,
        8,
        9,
        10,
        11,
        12,
        13,
        14,
        15
      ],
      "inverseBindMatrices": 7,
      "skeleton": 1
    }
  ],
  "meshes": [
    {
      "name": "explorer",
      "primitives": [
        {
          "attributes": {
            "POSITION": 0,
            "NORMAL": 1,
            "TEXCOORD_0": 2,
            "JOINTS_0": 3,
            "WEIGHTS_0": 4
          },
          "indices": 5,
          "material": 0,
          "targets": [
            {
              "POSITION": 6
            }
          ]
        }
      ],
      "weights": [
        0
      ]
    }
  ],
  "materials": [
    {
      "name": "explorer-cloth",
      "pbrMetallicRoughness": {
        "baseColorFactor": [
          0.9,
          0.36,
          0.16,
          1
        ],
        "metallicFactor": 0.1,
        "roughnessFactor": 0.7
      }
    }
  ],
  "animations": [
    {
      "name": "idle",
      "channels": [
        {
          "sampler": 0,
          "target": {
            "node": 4,
            "path": "rotation"
          }
        },
        {
          "sampler": 1,
          "target": {
            "node": 5,
            "path": "rotation"
          }
        },
        {
          "sampler": 2,
          "target": {
            "node": 7,
            "path": "rotation"
          }
        },
        {
          "sampler": 3,
          "target": {
            "node": 8,
            "path": "rotation"
          }
        },
        {
          "sampler": 4,
          "target": {
            "node": 10,
            "path": "rotation"
          }
        },
        {
          "sampler": 5,
          "target": {
            "node": 11,
            "path": "rotation"
          }
        },
        {
          "sampler": 6,
          "target": {
            "node": 13,
            "path": "rotation"
          }
        },
        {
          "sampler": 7,
          "target": {
            "node": 14,
            "path": "rotation"
          }
        },
        {
          "sampler": 8,
          "target": {
            "node": 1,
            "path": "translation"
          }
        }
      ],
      "samplers": [
        {
          "input": 8,
          "output": 9,
          "interpolation": "LINEAR"
        },
        {
          "input": 8,
          "output": 10,
          "interpolation": "LINEAR"
        },
        {
          "input": 8,
          "output": 11,
          "interpolation": "LINEAR"
        },
        {
          "input": 8,
          "output": 12,
          "interpolation": "LINEAR"
        },
        {
          "input": 8,
          "output": 13,
          "interpolation": "LINEAR"
        },
        {
          "input": 8,
          "output": 14,
          "interpolation": "LINEAR"
        },
        {
          "input": 8,
          "output": 15,
          "interpolation": "LINEAR"
        },
        {
          "input": 8,
          "output": 16,
          "interpolation": "LINEAR"
        },
        {
          "input": 8,
          "output": 17,
          "interpolation": "LINEAR"
        }
      ]
    },
    {
      "name": "walk",
      "channels": [
        {
          "sampler": 0,
          "target": {
            "node": 4,
            "path": "rotation"
          }
        },
        {
          "sampler": 1,
          "target": {
            "node": 5,
            "path": "rotation"
          }
        },
        {
          "sampler": 2,
          "target": {
            "node": 7,
            "path": "rotation"
          }
        },
        {
          "sampler": 3,
          "target": {
            "node": 8,
            "path": "rotation"
          }
        },
        {
          "sampler": 4,
          "target": {
            "node": 10,
            "path": "rotation"
          }
        },
        {
          "sampler": 5,
          "target": {
            "node": 11,
            "path": "rotation"
          }
        },
        {
          "sampler": 6,
          "target": {
            "node": 13,
            "path": "rotation"
          }
        },
        {
          "sampler": 7,
          "target": {
            "node": 14,
            "path": "rotation"
          }
        },
        {
          "sampler": 8,
          "target": {
            "node": 1,
            "path": "translation"
          }
        }
      ],
      "samplers": [
        {
          "input": 18,
          "output": 19,
          "interpolation": "LINEAR"
        },
        {
          "input": 18,
          "output": 20,
          "interpolation": "LINEAR"
        },
        {
          "input": 18,
          "output": 21,
          "interpolation": "LINEAR"
        },
        {
          "input": 18,
          "output": 22,
          "interpolation": "LINEAR"
        },
        {
          "input": 18,
          "output": 23,
          "interpolation": "LINEAR"
        },
        {
          "input": 18,
          "output": 24,
          "interpolation": "LINEAR"
        },
        {
          "input": 18,
          "output": 25,
          "interpolation": "LINEAR"
        },
        {
          "input": 18,
          "output": 26,
          "interpolation": "LINEAR"
        },
        {
          "input": 18,
          "output": 27,
          "interpolation": "LINEAR"
        }
      ]
    }
  ],
  "bufferViews": [
    {
      "buffer": 0,
      "byteOffset": 0,
      "byteLength": 4320
    },
    {
      "buffer": 0,
      "byteOffset": 4320,
      "byteLength": 4320
    },
    {
      "buffer": 0,
      "byteOffset": 8640,
      "byteLength": 2880
    },
    {
      "buffer": 0,
      "byteOffset": 11520,
      "byteLength": 2880
    },
    {
      "buffer": 0,
      "byteOffset": 14400,
      "byteLength": 5760
    },
    {
      "buffer": 0,
      "byteOffset": 20160,
      "byteLength": 1080
    },
    {
      "buffer": 0,
      "byteOffset": 21240,
      "byteLength": 4320
    },
    {
      "buffer": 0,
      "byteOffset": 25560,
      "byteLength": 960
    },
    {
      "buffer": 0,
      "byteOffset": 26520,
      "byteLength": 124
    },
    {
      "buffer": 0,
      "byteOffset": 26644,
      "byteLength": 496
    },
    {
      "buffer": 0,
      "byteOffset": 27140,
      "byteLength": 496
    },
    {
      "buffer": 0,
      "byteOffset": 27636,
      "byteLength": 496
    },
    {
      "buffer": 0,
      "byteOffset": 28132,
      "byteLength": 496
    },
    {
      "buffer": 0,
      "byteOffset": 28628,
      "byteLength": 496
    },
    {
      "buffer": 0,
      "byteOffset": 29124,
      "byteLength": 496
    },
    {
      "buffer": 0,
      "byteOffset": 29620,
      "byteLength": 496
    },
    {
      "buffer": 0,
      "byteOffset": 30116,
      "byteLength": 496
    },
    {
      "buffer": 0,
      "byteOffset": 30612,
      "byteLength": 372
    },
    {
      "buffer": 0,
      "byteOffset": 30984,
      "byteLength": 124
    },
    {
      "buffer": 0,
      "byteOffset": 31108,
      "byteLength": 496
    },
    {
      "buffer": 0,
      "byteOffset": 31604,
      "byteLength": 496
    },
    {
      "buffer": 0,
      "byteOffset": 32100,
      "byteLength": 496
    },
    {
      "buffer": 0,
      "byteOffset": 32596,
      "byteLength": 496
    },
    {
      "buffer": 0,
      "byteOffset": 33092,
      "byteLength": 496
    },
    {
      "buffer": 0,
      "byteOffset": 33588,
      "byteLength": 496
    },
    {
      "buffer": 0,
      "byteOffset": 34084,
      "byteLength": 496
    },
    {
      "buffer": 0,
      "byteOffset": 34580,
      "byteLength": 496
    },
    {
      "buffer": 0,
      "byteOffset": 35076,
      "byteLength": 372
    }
  ],
  "accessors": [
    {
      "bufferView": 0,
      "componentType": 5126,
      "count": 360,
      "type": "VEC3",
      "min": [
        -0.34500000000000003,
        -0.01000000000000005,
        -0.26
      ],
      "max": [
        0.34500000000000003,
        1.7999999999999998,
        0.14
      ]
    },
    {
      "bufferView": 1,
      "componentType": 5126,
      "count": 360,
      "type": "VEC3",
      "min": [
        -1,
        -1,
        -1
      ],
      "max": [
        1,
        1,
        1
      ]
    },
    {
      "bufferView": 2,
      "componentType": 5126,
      "count": 360,
      "type": "VEC2"
    },
    {
      "bufferView": 3,
      "componentType": 5123,
      "count": 360,
      "type": "VEC4"
    },
    {
      "bufferView": 4,
      "componentType": 5126,
      "count": 360,
      "type": "VEC4"
    },
    {
      "bufferView": 5,
      "componentType": 5123,
      "count": 540,
      "type": "SCALAR",
      "min": [
        0
      ],
      "max": [
        359
      ]
    },
    {
      "bufferView": 6,
      "componentType": 5126,
      "count": 360,
      "type": "VEC3",
      "min": [
        -0.009,
        0,
        0
      ],
      "max": [
        0.009,
        0,
        0
      ]
    },
    {
      "bufferView": 7,
      "componentType": 5126,
      "count": 15,
      "type": "MAT4"
    },
    {
      "bufferView": 8,
      "componentType": 5126,
      "count": 31,
      "type": "SCALAR",
      "min": [
        0.0
      ],
      "max": [
        1.0
      ]
    },
    {
      "bufferView": 9,
      "componentType": 5126,
      "count": 31,
      "type": "VEC4"
    },
    {
      "bufferView": 10,
      "componentType": 5126,
      "count": 31,
      "type": "VEC4"
    },
    {
      "bufferView": 11,
      "componentType": 5126,
      "count": 31,
      "type": "VEC4"
    },
    {
      "bufferView": 12,
      "componentType": 5126,
      "count": 31,
      "type": "VEC4"
    },
    {
      "bufferView": 13,
      "componentType": 5126,
      "count": 31,
      "type": "VEC4"
    },
    {
      "bufferView": 14,
      "componentType": 5126,
      "count": 31,
      "type": "VEC4"
    },
    {
      "bufferView": 15,
      "componentType": 5126,
      "count": 31,
      "type": "VEC4"
    },
    {
      "bufferView": 16,
      "componentType": 5126,
      "count": 31,
      "type": "VEC4"
    },
    {
      "bufferView": 17,
      "componentType": 5126,
      "count": 31,
      "type": "VEC3",
      "min": [
        0,
        0.8920438248370538,
        0
      ],
      "max": [
        0,
        0.9079561751629462,
        0
      ]
    },
    {
      "bufferView": 18,
      "componentType": 5126,
      "count": 31,
      "type": "SCALAR",
      "min": [
        0.0
      ],
      "max": [
        1.0
      ]
    },
    {
      "bufferView": 19,
      "componentType": 5126,
      "count": 31,
      "type": "VEC4"
    },
    {
      "bufferView": 20,
      "componentType": 5126,
      "count": 31,
      "type": "VEC4"
    },
    {
      "bufferView": 21,
      "componentType": 5126,
      "count": 31,
      "type": "VEC4"
    },
    {
      "bufferView": 22,
      "componentType": 5126,
      "count": 31,
      "type": "VEC4"
    },
    {
      "bufferView": 23,
      "componentType": 5126,
      "count": 31,
      "type": "VEC4"
    },
    {
      "bufferView": 24,
      "componentType": 5126,
      "count": 31,
      "type": "VEC4"
    },
    {
      "bufferView": 25,
      "componentType": 5126,
      "count": 31,
      "type": "VEC4"
    },
    {
      "bufferView": 26,
      "componentType": 5126,
      "count": 31,
      "type": "VEC4"
    },
    {
      "bufferView": 27,
      "componentType": 5126,
      "count": 31,
      "type": "VEC3",
      "min": [
        0,
        0.8820986058833711,
        0
      ],
      "max": [
        0,
        0.917901394116629,
        0
      ]
    }
  ],
  "buffers": [
    {
      "byteLength": 35448,
      "uri": "data:application/octet-stream;base64,"
    }
  ]
}
